<svg width="1200" height="420" viewBox="0 0 1200 420" fill="none" xmlns="http://www.w3.org/2000/svg" role="img" aria-labelledby="title desc">
  <title id="title">Erie HLS Generator architecture banner</title>
  <desc id="desc">A refined pipeline diagram showing an agent skill turning structured HLS intent into Vitis-ready artifacts and validation evidence.</desc>
  <defs>
    <linearGradient id="bg" x1="0" y1="0" x2="1200" y2="420" gradientUnits="userSpaceOnUse">
      <stop stop-color="#101820"/>
      <stop offset="0.55" stop-color="#173B49"/>
      <stop offset="1" stop-color="#0D1B2A"/>
    </linearGradient>
    <linearGradient id="line" x1="220" y1="210" x2="1030" y2="210" gradientUnits="userSpaceOnUse">
      <stop stop-color="#63E6BE"/>
      <stop offset="0.55" stop-color="#7CC7FF"/>
      <stop offset="1" stop-color="#F2C94C"/>
    </linearGradient>
    <filter id="shadow" x="-20%" y="-40%" width="140%" height="180%">
      <feDropShadow dx="0" dy="18" stdDeviation="18" flood-color="#000000" flood-opacity="0.28"/>
    </filter>
  </defs>
  <rect width="1200" height="420" rx="0" fill="url(#bg)"/>
  <g opacity="0.16">
    <path d="M0 340 C190 250 300 390 500 300 C710 205 810 92 1200 120" stroke="#9BE7FF" stroke-width="2"/>
    <path d="M0 110 C210 160 320 55 520 112 C760 180 875 310 1200 250" stroke="#F2C94C" stroke-width="2"/>
    <path d="M80 0 V420 M240 0 V420 M400 0 V420 M560 0 V420 M720 0 V420 M880 0 V420 M1040 0 V420" stroke="#FFFFFF" stroke-width="1"/>
    <path d="M0 70 H1200 M0 140 H1200 M0 210 H1200 M0 280 H1200 M0 350 H1200" stroke="#FFFFFF" stroke-width="1"/>
  </g>
  <text x="80" y="96" fill="#EAF6FF" font-family="Inter, Segoe UI, Arial, sans-serif" font-size="38" font-weight="700">Erie HLS Generator</text>
  <text x="82" y="132" fill="#A9C7D8" font-family="Inter, Segoe UI, Arial, sans-serif" font-size="18">Agent skill for structured Vitis HLS generation</text>
  <g filter="url(#shadow)">
    <rect x="92" y="202" width="170" height="74" rx="12" fill="#142936" stroke="#63E6BE" stroke-width="2"/>
    <rect x="327" y="202" width="170" height="74" rx="12" fill="#142936" stroke="#7CC7FF" stroke-width="2"/>
    <rect x="562" y="202" width="170" height="74" rx="12" fill="#142936" stroke="#7CC7FF" stroke-width="2"/>
    <rect x="797" y="202" width="170" height="74" rx="12" fill="#142936" stroke="#F2C94C" stroke-width="2"/>
  </g>
  <path d="M262 239 H327 M497 239 H562 M732 239 H797" stroke="url(#line)" stroke-width="4" stroke-linecap="round"/>
  <path d="M315 232 L327 239 L315 246 M550 232 L562 239 L550 246 M785 232 L797 239 L785 246" stroke="#EAF6FF" stroke-width="2" stroke-linecap="round" stroke-linejoin="round"/>
  <text x="130" y="232" fill="#FFFFFF" font-family="Inter, Segoe UI, Arial, sans-serif" font-size="18" font-weight="700">Intent Spec</text>
  <text x="123" y="256" fill="#A9C7D8" font-family="Inter, Segoe UI, Arial, sans-serif" font-size="13">confirmed HLS contract</text>
  <text x="369" y="232" fill="#FFFFFF" font-family="Inter, Segoe UI, Arial, sans-serif" font-size="18" font-weight="700">Skill</text>
  <text x="355" y="256" fill="#A9C7D8" font-family="Inter, Segoe UI, Arial, sans-serif" font-size="13">SKILL.md + references</text>
  <text x="594" y="232" fill="#FFFFFF" font-family="Inter, Segoe UI, Arial, sans-serif" font-size="18" font-weight="700">Runtime</text>
  <text x="596" y="256" fill="#A9C7D8" font-family="Inter, Segoe UI, Arial, sans-serif" font-size="13">deterministic pipeline</text>
  <text x="835" y="232" fill="#FFFFFF" font-family="Inter, Segoe UI, Arial, sans-serif" font-size="18" font-weight="700">Vitis Evidence</text>
  <text x="835" y="256" fill="#A9C7D8" font-family="Inter, Segoe UI, Arial, sans-serif" font-size="13">artifacts + reports</text>
  <text x="80" y="352" fill="#DDEEFF" font-family="Inter, Segoe UI, Arial, sans-serif" font-size="16">requirements -> codegen plan -> tests -> Python oracle -> HLS C/C++ -> validation</text>
</svg>

