<svg width="1280" height="520" viewBox="0 0 1280 520" fill="none" xmlns="http://www.w3.org/2000/svg" role="img" aria-labelledby="title desc">
  <title id="title">HLS Generator hero</title>
  <desc id="desc">A polished technical banner for an agent skill that converts confirmed hardware intent into Vitis HLS artifacts and validation evidence.</desc>
  <defs>
    <radialGradient id="glowA" cx="0" cy="0" r="1" gradientUnits="userSpaceOnUse" gradientTransform="translate(980 122) rotate(143) scale(620 290)">
      <stop stop-color="#4DD4AC" stop-opacity="0.48"/>
      <stop offset="0.52" stop-color="#1C7ED6" stop-opacity="0.18"/>
      <stop offset="1" stop-color="#08111F" stop-opacity="0"/>
    </radialGradient>
    <linearGradient id="bg" x1="0" y1="0" x2="1280" y2="520" gradientUnits="userSpaceOnUse">
      <stop stop-color="#08111F"/>
      <stop offset="0.55" stop-color="#0D1B2A"/>
      <stop offset="1" stop-color="#071019"/>
    </linearGradient>
    <linearGradient id="stroke" x1="168" y1="322" x2="1020" y2="322" gradientUnits="userSpaceOnUse">
      <stop stop-color="#39D98A"/>
      <stop offset="0.5" stop-color="#58A6FF"/>
      <stop offset="1" stop-color="#F7C948"/>
    </linearGradient>
    <filter id="shadow" x="-20%" y="-40%" width="140%" height="190%">
      <feDropShadow dx="0" dy="22" stdDeviation="20" flood-color="#000" flood-opacity="0.34"/>
    </filter>
  </defs>

  <rect width="1280" height="520" rx="28" fill="url(#bg)"/>
  <rect width="1280" height="520" rx="28" fill="url(#glowA)"/>
  <g opacity="0.13">
    <path d="M88 122H1192M88 202H1192M88 282H1192M88 362H1192M88 442H1192" stroke="#E6EDF3"/>
    <path d="M160 70V470M320 70V470M480 70V470M640 70V470M800 70V470M960 70V470M1120 70V470" stroke="#E6EDF3"/>
  </g>

  <g transform="translate(88 76)">
    <text x="0" y="34" fill="#E6EDF3" font-family="Inter, Segoe UI, Arial, sans-serif" font-size="18" font-weight="700" letter-spacing="3">AGENT SKILL</text>
    <text x="0" y="98" fill="#FFFFFF" font-family="Inter, Segoe UI, Arial, sans-serif" font-size="58" font-weight="800">HLS Generator</text>
    <text x="2" y="140" fill="#A9B8C8" font-family="Inter, Segoe UI, Arial, sans-serif" font-size="22">Structured Vitis HLS workflows for AI coding agents</text>
  </g>

  <g filter="url(#shadow)" font-family="Inter, Segoe UI, Arial, sans-serif">
    <rect x="94" y="286" width="214" height="88" rx="18" fill="#0F2233" stroke="#39D98A" stroke-width="1.6"/>
    <rect x="382" y="286" width="214" height="88" rx="18" fill="#0F2233" stroke="#58A6FF" stroke-width="1.6"/>
    <rect x="670" y="286" width="214" height="88" rx="18" fill="#0F2233" stroke="#58A6FF" stroke-width="1.6"/>
    <rect x="958" y="286" width="214" height="88" rx="18" fill="#0F2233" stroke="#F7C948" stroke-width="1.6"/>

    <path d="M308 330H382M596 330H670M884 330H958" stroke="url(#stroke)" stroke-width="4" stroke-linecap="round"/>
    <path d="M370 320L382 330L370 340M658 320L670 330L658 340M946 320L958 330L946 340" stroke="#D8E7F5" stroke-width="2.4" stroke-linecap="round" stroke-linejoin="round"/>

    <text x="124" y="324" fill="#FFFFFF" font-size="20" font-weight="800">Intent Contract</text>
    <text x="124" y="350" fill="#9FB0C3" font-size="14">interfaces, pipeline, tests</text>

    <text x="414" y="324" fill="#FFFFFF" font-size="20" font-weight="800">Skill Context</text>
    <text x="414" y="350" fill="#9FB0C3" font-size="14">rules, references, examples</text>

    <text x="702" y="324" fill="#FFFFFF" font-size="20" font-weight="800">Runtime</text>
    <text x="702" y="350" fill="#9FB0C3" font-size="14">prompt, extract, validate</text>

    <text x="990" y="324" fill="#FFFFFF" font-size="20" font-weight="800">Evidence</text>
    <text x="990" y="350" fill="#9FB0C3" font-size="14">artifacts, reports, traces</text>
  </g>

  <g transform="translate(88 432)" font-family="Inter, Segoe UI, Arial, sans-serif">
    <rect x="0" y="0" width="138" height="36" rx="18" fill="#132A3E" stroke="#244A64"/>
    <rect x="154" y="0" width="146" height="36" rx="18" fill="#132A3E" stroke="#244A64"/>
    <rect x="316" y="0" width="120" height="36" rx="18" fill="#132A3E" stroke="#244A64"/>
    <text x="22" y="23" fill="#D8E7F5" font-size="14" font-weight="700">Vitis HLS</text>
    <text x="176" y="23" fill="#D8E7F5" font-size="14" font-weight="700">C/C++ kernels</text>
    <text x="338" y="23" fill="#D8E7F5" font-size="14" font-weight="700">Validation</text>
  </g>
</svg>

